<svg width="76" height="76" viewBox="0 0 76 76" fill="none" xmlns="http://www.w3.org/2000/svg">
<path d="M76 37.9974C76 58.9846 58.9899 75.9947 38.0026 75.9947C17.0154 75.9947 0 58.9846 0 37.9974C0 17.0101 17.0101 0 37.9974 0C58.9846 0 75.9947 17.0101 75.9947 37.9974H76Z" fill="#EEEEEE"/>
<path d="M52.0735 29.8834C52.0735 37.6577 45.7715 43.9544 38.0026 43.9544C30.2336 43.9544 23.9316 37.6524 23.9316 29.8834C23.9316 22.1145 30.2336 15.8125 38.0026 15.8125C45.7715 15.8125 52.0735 22.1145 52.0735 29.8834Z" fill="white"/>
<path d="M37.9974 46.8672C26.8603 46.8672 17.5185 54.5302 14.9395 64.8729C21.1408 70.2005 29.1957 73.4309 37.9974 73.4309C46.799 73.4309 54.8539 70.2005 61.0553 64.8729C58.4762 54.5302 49.1397 46.8672 37.9974 46.8672Z" fill="white"/>
<path d="M14.3994 67.7812L14.405 67.7869L14.3994 67.7812Z" fill="white"/>
</svg>
